<?xml version="1.0" encoding="utf-8"?>
<!-- Generator: Adobe Illustrator 22.1.0, SVG Export Plug-In . SVG Version: 6.00 Build 0)  -->
<svg version="1.1" id="Layer_1" xmlns="http://www.w3.org/2000/svg" xmlns:xlink="http://www.w3.org/1999/xlink" x="0px" y="0px"
	 viewBox="0 0 100 125" style="enable-background:new 0 0 100 125;" xml:space="preserve">
<style type="text/css">
	.st0{fill:#BF4747;}
	.st1{font-family:'Arial-BoldMT';}
	.st2{font-size:5px;}
</style>
<title>heart 2k18</title>
<path class="st0" d="M50.1,16.3c3.5-4.3,8-7.5,13.2-9.4c16.2-5.7,32.8,3.9,36.1,20.8c1.6,8.2,0,15.7-3.8,22.9
	c-4.3,8.1-10.2,14.9-16.7,21.3C70.4,80.3,61,87.8,51,94.4c-0.5,0.5-1.3,0.5-1.8,0c-12.6-8.2-24.1-17.9-34.2-29
	C9.8,59.5,5.1,53.2,2.3,45.7c-4.1-11-2.9-21.5,4.4-30.9C11.4,9,17.7,6,25.1,5.4C35,4.6,43,8.4,49.6,15.7L50.1,16.3z"/>
<text transform="matrix(1 0 0 1 0 115)" class="st1 st2">Created by i cons</text>
<text transform="matrix(1 0 0 1 0 120)" class="st1 st2">from the Noun Project</text>
</svg>
